# xmcd
# 
# Track frame offsets:
#     150
#     28580
#     62167
#     82742
#     114981
#     149308
#     177334
#     207523
#     233619
# 
# Disc length: 3516
# 
# Revision: 3
# Processed by: cddbd v1.5.2PL0 Copyright (c) Steve Scherf et al.
# Submitted via: fre:ac v1.0.31
# 
DISCID=710dba09
DTITLE=Gelesen von Josefine Preuß - Ich schreib dir morgen wieder CD4
DYEAR=2010
DGENRE=Hörbuch
TTITLE0=31 Ich schreib dir morgen wieder
TTITLE1=32 Ich schreib dir morgen wieder
TTITLE2=33 Ich schreib dir morgen wieder
TTITLE3=34 Ich schreib dir morgen wieder
TTITLE4=35 Ich schreib dir morgen wieder
TTITLE5=36 Ich schreib dir morgen wieder
TTITLE6=37 Ich schreib dir morgen wieder
TTITLE7=38 Ich schreib dir morgen wieder
TTITLE8=39 Ich schreib dir morgen wieder
EXTD=
EXTT0=
EXTT1=
EXTT2=
EXTT3=
EXTT4=
EXTT5=
EXTT6=
EXTT7=
EXTT8=
PLAYORDER=
